<svg xmlns="http://www.w3.org/2000/svg" width="64.217" height="87.218" viewBox="0 0 64.217 87.218"><defs><style>.a{opacity:0.16;}.b,.c{fill:#0ba29c;}.c,.d,.e{fill-rule:evenodd;}.d{fill:#3d3e3d;}.e{fill:#fff;}</style></defs><ellipse class="a" cx="15.359" cy="3.84" rx="15.359" ry="3.84" transform="translate(16.75 79.539)"/><path class="b" d="M289.34,504,298,462.978A3.3,3.3,0,0,0,294.767,459h-17.31a3.3,3.3,0,0,0-3.228,3.981L282.883,504A3.3,3.3,0,0,0,289.34,504Z" transform="translate(-254.03 -423.892)"/><path class="c" d="M269.736,459.067A32.033,32.033,0,1,0,237.7,427.033,32.095,32.095,0,0,0,269.736,459.067Z" transform="translate(-237.572 -395)"/><g transform="translate(15.876 20.143)"><path class="d" d="M268.294,436.147a.979.979,0,1,1-1.817-.728,5.879,5.879,0,0,1,8.768-2.68h0a5.9,5.9,0,0,1,2.167,2.707.981.981,0,1,1-1.824.721,3.952,3.952,0,0,0-1.448-1.81,3.93,3.93,0,0,0-5.851,1.79Z" transform="translate(-266.406 -431.72)"/><path class="d" d="M307.484,436.147a.979.979,0,1,1-1.818-.728,5.879,5.879,0,0,1,8.768-2.68h0a5.891,5.891,0,0,1,2.169,2.707.981.981,0,0,1-1.825.721,3.947,3.947,0,0,0-1.448-1.81,3.928,3.928,0,0,0-5.848,1.79Z" transform="translate(-284.098 -431.72)"/></g><path class="e" d="M329.669,445.32s8.675-2.961,11.447-10.041c0,0,1.408,1.232,1.134,4.633,0,0-2.872,6.215-11.675,9.1l-2.236-.578Z" transform="translate(-278.49 -413.184)"/><path class="e" d="M325.272,469.23l3.149-.716s8.649-3.423,11.229-8.749a8.551,8.551,0,0,1-1.607,7.1c-2.669,3.8-10.676,7.915-16.016,7.554Z" transform="translate(-275.641 -424.238)"/><path class="e" d="M250.852,445.32s-8.676-2.961-11.447-10.041c0,0-1.409,1.232-1.134,4.633,0,0,2.872,6.215,11.673,9.1l2.238-.578Z" transform="translate(-237.813 -413.184)"/><path class="e" d="M252.049,469.23l-3.147-.716s-8.648-3.423-11.228-8.749a8.549,8.549,0,0,0,1.606,7.1c2.669,3.8,10.677,7.915,16.016,7.554Z" transform="translate(-237.465 -424.238)"/><path class="e" d="M294.43,448.732c3.515.429,5.034,3.771,5.274,8.741a51.841,51.841,0,0,1-.364,10.073c-.624,2.908-2.055,5.375-5.15,6.056-6.666,1.47-23.791,1.47-30.461,0-2.9-.639-4.341-2.851-5.025-5.523-.688-2.7-.607-8.108-.487-10.606.238-4.97,1.759-8.312,5.274-8.741C268.866,448.078,289.056,448.078,294.43,448.732Z" transform="translate(-246.798 -419.036)"/></svg>