<svg xmlns="http://www.w3.org/2000/svg" width="64.217" height="87.219" viewBox="0 0 64.217 87.219"><defs><style>.a{opacity:0.16;}.b,.c{fill:#919191;}.c,.d,.e{fill-rule:evenodd;}.d{fill:#fff;}.e{fill:#3d3e3d;}</style></defs><ellipse class="a" cx="15.359" cy="3.84" rx="15.359" ry="3.84" transform="translate(16.546 79.539)"/><path class="b" d="M743.759,504l8.655-41.023A3.3,3.3,0,0,0,749.186,459h-17.31a3.3,3.3,0,0,0-3.228,3.981L737.3,504A3.3,3.3,0,0,0,743.759,504Z" transform="translate(-708.422 -423.892)"/><path class="c" d="M724.107,459.067a32.033,32.033,0,1,0-32.034-32.033A32.094,32.094,0,0,0,724.107,459.067Z" transform="translate(-691.943 -395)"/><path class="d" d="M784.04,445.32s8.675-2.961,11.447-10.041c0,0,1.408,1.232,1.134,4.633,0,0-2.872,6.215-11.675,9.1l-2.237-.578Z" transform="translate(-732.862 -413.184)"/><path class="d" d="M779.644,469.23l3.148-.716s8.65-3.423,11.229-8.749a8.552,8.552,0,0,1-1.606,7.1c-2.669,3.8-10.676,7.915-16.017,7.554Z" transform="translate(-730.013 -424.238)"/><path class="d" d="M705.224,445.32s-8.676-2.961-11.446-10.041c0,0-1.409,1.232-1.134,4.633,0,0,2.872,6.215,11.673,9.1l2.237-.578Z" transform="translate(-692.185 -413.184)"/><path class="d" d="M706.42,469.23l-3.147-.716s-8.649-3.423-11.228-8.749a8.551,8.551,0,0,0,1.607,7.1c2.668,3.8,10.677,7.915,16.016,7.554Z" transform="translate(-691.836 -424.238)"/><path class="d" d="M748.8,448.732c3.516.429,5.035,3.771,5.274,8.741a51.857,51.857,0,0,1-.364,10.073c-.624,2.908-2.056,5.375-5.15,6.056-6.666,1.47-23.792,1.47-30.461,0-2.9-.639-4.341-2.851-5.025-5.523-.688-2.7-.607-8.108-.488-10.606.239-4.97,1.759-8.312,5.274-8.741C723.237,448.078,743.427,448.078,748.8,448.732Z" transform="translate(-701.169 -419.036)"/><g transform="translate(16.138 15.766)"><path class="e" d="M721.515,425.247A.881.881,0,0,1,722.761,424l3.109,3.109L728.98,424a.881.881,0,0,1,1.247,1.246l-3.109,3.109,3.109,3.11a.881.881,0,0,1-1.247,1.246l-3.109-3.109-3.109,3.109a.881.881,0,0,1-1.246-1.246l3.109-3.11Z" transform="translate(-721.257 -423.742)"/><path class="e" d="M763.309,425.247A.881.881,0,0,1,764.556,424l3.109,3.109L770.774,424a.881.881,0,0,1,1.247,1.246l-3.109,3.109,3.109,3.11a.881.881,0,0,1-1.247,1.246l-3.109-3.109-3.109,3.109a.881.881,0,0,1-1.247-1.246l3.109-3.11Z" transform="translate(-740.125 -423.742)"/></g></svg>