<svg xmlns="http://www.w3.org/2000/svg" width="64.217" height="86.87" viewBox="0 0 64.217 86.87"><defs><style>.a{opacity:0.16;}.b,.c{fill:#d4145a;}.c,.d,.e{fill-rule:evenodd;}.d{fill:#3d3e3d;}.e{fill:#fff;}</style></defs><ellipse class="a" cx="15.359" cy="3.84" rx="15.359" ry="3.84" transform="translate(16.881 79.19)"/><path class="b" d="M593.149,504.636l8.656-41.023a3.3,3.3,0,0,0-3.229-3.981h-17.31a3.3,3.3,0,0,0-3.228,3.981l8.655,41.023A3.3,3.3,0,0,0,593.149,504.636Z" transform="translate(-557.812 -424.527)"/><path class="c" d="M573.5,459.7a32.034,32.034,0,1,0-32.034-32.034A32.095,32.095,0,0,0,573.5,459.7Z" transform="translate(-541.333 -395.635)"/><g transform="translate(15.875 20.143)"><path class="d" d="M618.548,433a.979.979,0,1,1,1.818.728,5.879,5.879,0,0,1-8.769,2.68h0a5.9,5.9,0,0,1-2.167-2.706.981.981,0,1,1,1.824-.721,3.951,3.951,0,0,0,1.448,1.81,3.93,3.93,0,0,0,5.851-1.79Z" transform="translate(-587.859 -432.355)"/><path class="d" d="M579.359,433a.979.979,0,1,1,1.818.728,5.879,5.879,0,0,1-8.768,2.68h0a5.89,5.89,0,0,1-2.17-2.706.982.982,0,0,1,1.826-.721,3.944,3.944,0,0,0,1.448,1.81,3.928,3.928,0,0,0,5.849-1.79Z" transform="translate(-570.167 -432.355)"/></g><path class="e" d="M633.431,445.955s8.675-2.961,11.447-10.041c0,0,1.408,1.232,1.134,4.634,0,0-2.872,6.215-11.675,9.1l-2.236-.577Z" transform="translate(-582.252 -413.819)"/><path class="e" d="M629.034,469.866l3.148-.716s8.65-3.424,11.229-8.749a8.547,8.547,0,0,1-1.606,7.1c-2.669,3.8-10.676,7.916-16.016,7.554Z" transform="translate(-579.403 -424.874)"/><path class="e" d="M554.614,445.955s-8.676-2.961-11.446-10.041c0,0-1.409,1.232-1.134,4.634,0,0,2.872,6.215,11.673,9.1l2.238-.577Z" transform="translate(-541.575 -413.819)"/><path class="e" d="M555.81,469.866l-3.148-.716s-8.649-3.424-11.228-8.749a8.549,8.549,0,0,0,1.607,7.1c2.668,3.8,10.677,7.916,16.016,7.554Z" transform="translate(-541.226 -424.874)"/><path class="e" d="M598.191,449.367c3.516.429,5.035,3.771,5.274,8.742a51.829,51.829,0,0,1-.364,10.072c-.624,2.908-2.056,5.375-5.15,6.055-6.666,1.471-23.791,1.471-30.461,0-2.9-.638-4.341-2.851-5.025-5.522-.688-2.7-.607-8.109-.488-10.606.238-4.97,1.758-8.313,5.274-8.742C572.628,448.713,592.817,448.713,598.191,449.367Z" transform="translate(-550.559 -419.671)"/></svg>